<?xml version="1.0" encoding="UTF-8" standalone="no"?>
<!-- Generator: Adobe Illustrator 14.0.0, SVG Export Plug-In . SVG Version: 6.00 Build 43363)  -->

<svg
   version="1.1"
   id="Layer_1"
   x="0px"
   y="0px"
   width="1200"
   height="600"
   viewBox="0 0 1200 600"
   enable-background="new 0 0 612 792"
   xml:space="preserve"
   sodipodi:docname="r2d2.svg"
   inkscape:version="1.1 (c68e22c387, 2021-05-23)"
   xmlns:inkscape="http://www.inkscape.org/namespaces/inkscape"
   xmlns:sodipodi="http://sodipodi.sourceforge.net/DTD/sodipodi-0.dtd"
   xmlns="http://www.w3.org/2000/svg"
   xmlns:svg="http://www.w3.org/2000/svg"><defs
   id="defs119"><rect
   x="271.39432"
   y="450.15234"
   width="184.61375"
   height="131.4209"
   id="rect5854" />
	
	
	
	
	
	
	
	
	
	
	
	
	
	
	
	
	
	
	
	
	
	
	
	
	
	
	
	
	
	
	
	
	
	
	
	
	
	
	
	
	
	
	
	
	
	
	
	
	
	
	
	
	
	
	
	
</defs><sodipodi:namedview
   id="namedview117"
   pagecolor="#ffffff"
   bordercolor="#666666"
   borderopacity="1.0"
   inkscape:pageshadow="2"
   inkscape:pageopacity="0.0"
   inkscape:pagecheckerboard="0"
   showgrid="false"
   inkscape:zoom="0.21338197"
   inkscape:cx="461.61351"
   inkscape:cy="203.85977"
   inkscape:window-width="1366"
   inkscape:window-height="705"
   inkscape:window-x="-8"
   inkscape:window-y="-8"
   inkscape:window-maximized="1"
   inkscape:current-layer="Layer_1" />
<rect
   style="fill:#e9ecee;fill-opacity:1;stroke-width:9.81682;stroke-linecap:round;stroke-linejoin:round"
   id="rect2758"
   width="1200"
   height="400.99023"
   x="0"
   y="0" /><rect
   style="fill:#d0d3d6;fill-opacity:1;stroke-width:6.91578;stroke-linecap:round;stroke-linejoin:round"
   id="rect958"
   width="1200"
   height="199.0098"
   x="0"
   y="400.99017" /><polygon
   fill="#e9ecee"
   points="384.629,484.748 227,484.748 227,309 384.629,309 "
   id="polygon2"
   transform="matrix(3.3796373,0,0,3.3796348,-468.1633,-1038.2712)" /><polygon
   fill="#d0d3d6"
   points="384.629,484.748 227,484.748 227,425.863 384.629,425.863 "
   id="polygon4"
   transform="matrix(3.3796373,0,0,3.3796348,-468.1633,-1038.2712)" /><g
   id="g13312"
   transform="matrix(1.2190241,0,0,1.2190232,180.10463,-156.54297)"><path
     d="m 233.00786,488.00684 -39.97264,60.35819 102.1828,17.47174 45.5341,-10.85122 -9.0048,-20.1194 56.65702,9.2654 38.64465,-9.79493 -25.41193,-56.38532 -15.617,-0.26615 -1.06183,-14.29456 3.17718,-2.3815 c 0,0 9.79494,-9.79493 17.9985,-21.70799 l -15.61699,-172.60206 -1.85198,-15.35362 c 0,0 3.17442,-5.82484 8.46972,-10.854 0,0 4.76578,-2.91103 2.91381,-8.99925 -1.85197,-6.08821 -7.67958,-10.85399 -7.67958,-10.85399 0,0 -1.58582,-2.3815 -5.02916,0.79291 -3.44333,3.17719 -6.88113,2.91381 -6.88113,2.91381 0,0 -11.6469,-32.56199 -58.76682,-41.0317 -47.12269,-8.4725 -86.83195,18.00127 -99.80406,47.65222 0,0 -4.23348,7.67681 -4.23348,25.67808 0,18.00127 3.9701,49.77034 3.9701,49.77034 l 15.09024,144.01018 8.20634,8.99925 0.26338,2.11812 c 0,0 -7.94296,6.08822 -5.02916,25.94424 z"
     id="path6"
     style="stroke-width:2.77241" /><path
     fill="#e9ecee"
     d="m 207.06363,534.6 17.73512,2.3815 c 0,0 4.76578,-19.58986 12.44259,-29.64817 7.67958,-10.06109 15.88314,-7.67959 20.91507,8.7331 5.02916,16.41545 4.76301,28.3285 4.76301,28.3285 l 27.53282,5.02639 2.91104,11.64967 -93.4497,-16.1493 z"
     id="path8"
     style="stroke-width:2.77241" /><path
     fill="#e9ecee"
     d="m 208.65499,532.21573 27.26668,-41.0317 41.56123,1.85197 12.17921,54.00381 -24.35565,-4.76577 c 0,0 9.53156,-19.32649 0.26616,-41.82739 l -21.17846,-1.85474 c 0,0 -16.94221,2.3815 -21.17846,36.53485 z"
     id="path10"
     style="stroke-width:2.77241" /><path
     fill="#e9ecee"
     d="m 252.33435,501.50849 c 0,0 10.32446,8.99925 12.43981,36.79545 0,0 6.35437,-15.09024 -0.26338,-36.26869 z"
     id="path12"
     style="stroke-width:2.77241" /><polygon
     fill="#ffffff"
     points="299.16,447.994 295.436,438.922 292.667,438.922 298.396,463.08 312.527,459.834 303.075,439.305 299.446,439.113 303.266,447.611 "
     id="polygon14"
     transform="matrix(2.7724122,0,0,2.7724122,-531.79254,-723.30718)" /><polygon
     fill="#dae3e7"
     points="302.215,447.038 299.637,447.325 296.295,439.018 298.683,439.018 "
     id="polygon16"
     transform="matrix(2.7724122,0,0,2.7724122,-531.79254,-723.30718)" /><path
     fill="#e9ecee"
     d="m 244.92092,467.88745 c 0,0 0,16.1493 6.08821,21.17845 l -8.20634,-0.26615 c 0.003,0 -1.05906,-16.41268 2.11813,-20.9123 z"
     id="path18"
     style="stroke-width:2.77241" /><path
     fill="#e9ecee"
     d="m 247.56857,451.21139 c 0,0 -2.11812,31.7663 9.00202,37.85451 l 13.76503,1.05906 c 0,0 10.85399,-0.52675 8.73587,-37.85451 z"
     id="path20"
     style="stroke-width:2.77241" /><path
     fill="#ffffff"
     d="m 281.45299,452.53383 11.38353,0.26615 c 0,0 1.58859,33.88442 -9.79494,37.85451 l -9.2654,-0.79291 c 0,0 9.2654,-2.64765 7.67681,-37.32775 z"
     id="path22"
     style="stroke-width:2.77241" /><path
     fill="#e9ecee"
     d="m 294.68849,464.97364 c 0,0 1.58859,15.61977 -6.61775,25.68085 l 15.09024,0.52954 c 0,0 -1.85197,-19.06034 5.82484,-27.0033 z"
     id="path24"
     style="stroke-width:2.77241" /><path
     fill="#ffffff"
     d="m 305.54248,491.97971 h 5.82484 l 8.47526,18.00127 v -31.50292 c 0,0 0.26061,-10.58784 -4.50517,-14.03118 -4.76577,-3.44056 -11.38075,6.88113 -9.79493,27.53283 z"
     id="path26"
     style="stroke-width:2.77241" /><path
     fill="#e9ecee"
     d="m 323.01422,473.97566 0.26616,41.82739 47.65222,5.55868 c 0,0 -3.9701,-6.88112 -3.17719,-52.94475 -0.003,0.003 -27.7962,6.61774 -44.74119,5.55868 z"
     id="path28"
     style="stroke-width:2.77241" /><path
     fill="#ffffff"
     d="m 370.40029,467.62129 10.85677,-2.91103 c 0,0 2.11812,40.76832 -1.59137,53.47429 0,0 -3.97009,6.88113 -7.14727,-0.79568 -3.17442,-7.67404 -3.17442,-46.32424 -2.11813,-49.76758 z"
     id="path30"
     style="stroke-width:2.77241" /><polygon
     fill="#dae3e7"
     points="331.912,434.529 330.766,434.626 330.766,437.968 333.057,443.506 335.35,443.22 "
     id="polygon32"
     transform="matrix(2.7724122,0,0,2.7724122,-531.79254,-723.30718)" /><path
     fill="#e9ecee"
     d="m 391.05199,481.38632 10.32169,26.21039 -10.58507,1.05906 -5.56146,-12.44259 c 0,0 0.26616,15.61977 -1.85197,21.97414 l 5.02916,21.70522 33.35489,-8.20357 -23.03597,-50.82941 z"
     id="path34"
     style="stroke-width:2.77241" /><path
     fill="#ffffff"
     d="m 324.07606,518.98023 46.59038,5.02916 c 0,0 9.26541,2.3815 11.12292,-2.38151 l 3.9701,18.00128 -56.12472,-9.00203 z"
     id="path36"
     style="stroke-width:2.77241" /><path
     fill="#e9ecee"
     d="m 295.48417,454.91533 v 6.61775 l 12.70597,-0.52676 c 0,0 11.12014,-2.1209 14.03395,8.73587 0,0 19.85047,1.05906 63.79875,-9.79493 l 14.29455,-18.79418 c 0,0 -54.53334,13.23272 -104.83322,13.76225 z"
     id="path38"
     style="stroke-width:2.77241" /><path
     fill="#ffffff"
     d="m 297.07276,425.5333 -1.32521,26.73715 c 0,0 29.64818,0.52953 48.44513,-2.91103 l -3.17441,-28.06236 c 0,-0.003 -43.1526,3.44056 -43.94551,4.23624 z"
     id="path40"
     style="stroke-width:2.77241" /><path
     fill="#ffffff"
     d="m 342.60686,421.03368 2.91381,28.05958 c 0,0 34.14502,-3.70671 57.181,-10.06108 L 400.578,414.14701 c 0,0 -50.56048,6.61775 -57.97114,6.88667 z"
     id="path42"
     style="stroke-width:2.77241" /><polygon
     fill="#ffffff"
     points="294.099,397.004 293.335,423.168 297.441,423.263 298.3,397.673 298.491,397.195 "
     id="polygon44"
     transform="matrix(2.7724122,0,0,2.7724122,-531.79254,-723.30718)" /><path
     fill="#e9ecee"
     d="m 272.19036,449.35942 7.14728,0.52953 2.3815,-72.80355 9.26541,-13.76503 -0.26616,-43.14982 c 0,0 2.91381,-39.17973 -27.7962,-37.59114 -30.70724,1.5886 -25.94146,34.67734 -25.94146,36.2687 0,1.58859 0,46.06086 0,46.06086 l 14.29456,11.91028 -2.91104,71.74171 6.61775,0.26615 2.91103,-76.50471 -8.20634,-8.73587 -0.26615,-36.79546 c 0,0 -5.29531,-11.91028 3.70672,-21.97136 8.99925,-10.05832 21.70798,-6.35437 25.94146,6.88112 4.23624,13.2355 -4.23348,20.64893 -4.23348,20.64893 z"
     id="path46"
     style="stroke-width:2.77241" /><path
     fill="#006598"
     d="m 251.53867,332.08361 v 30.18048 l 21.17845,0.79291 0.52953,-28.32574 c 0,0 -11.12014,10.58784 -21.70798,-2.64765 z"
     id="path48"
     style="stroke-width:2.77241" /><polygon
     fill="#006598"
     points="290.184,394.617 290.184,392.516 283.118,392.421 285.314,394.712 "
     id="polygon50"
     transform="matrix(2.7724122,0,0,2.7724122,-531.79254,-723.30718)" /><polygon
     fill="#006598"
     points="289.42,422.977 284.55,422.785 285.696,395.381 290.088,395.286 "
     id="polygon52"
     transform="matrix(2.7724122,0,0,2.7724122,-531.79254,-723.30718)" /><polygon
     fill="#ffffff"
     points="280.445,415.146 277.962,415.146 278.917,422.977 280.158,422.977 "
     id="polygon54"
     transform="matrix(2.7724122,0,0,2.7724122,-531.79254,-723.30718)" /><path
     fill="#ffffff"
     d="m 238.30317,426.06006 7.14728,0.26615 2.91103,-47.9156 -13.50165,-11.91028 -0.79568,-53.74044 c 0,0 -1.58859,-12.97211 6.08822,-21.70798 0,0 -12.44259,2.64765 -15.61977,5.2953 z"
     id="path56"
     style="stroke-width:2.77241" /><path
     fill="#8e99a3"
     d="m 249.42054,318.71504 c 0,-10.01396 6.4015,-18.13435 14.29733,-18.13435 7.89306,0 14.29456,8.12039 14.29456,18.13435 0,10.01395 -6.4015,18.13434 -14.29456,18.13434 -7.89583,0 -14.29733,-8.12039 -14.29733,-18.13434 z"
     id="path58"
     style="stroke-width:2.77241" /><polygon
     fill="#ffffff"
     points="299.064,396.431 294.385,396.24 297.441,391.848 302.12,391.943 "
     id="polygon60"
     transform="matrix(2.7724122,0,0,2.7724122,-531.79254,-723.30718)" /><path
     fill="#ffffff"
     d="m 293.36605,361.4684 12.44258,0.26616 v -52.41523 c 0,0 0.26338,-19.32649 -13.76502,-24.88517 l -15.61977,-1.58859 c 0,0 12.97211,5.55868 15.35362,23.55995 z"
     id="path62"
     style="stroke-width:2.77241" /><path
     fill="#ffffff"
     d="m 283.83727,280.72467 c 0,0 30.44108,-6.35437 42.09076,-6.35437 l 15.09024,145.59877 -44.21166,3.70672 1.32521,-44.20889 10.32447,-15.35362 v -54.79949 c 0,0.003 1.85197,-28.58912 -24.61902,-28.58912 z"
     id="path64"
     style="stroke-width:2.77241" /><path
     fill="#ffffff"
     d="m 327.25047,273.58016 6.62329,61.94401 c 0,0 32.29306,-5.29253 59.03298,-5.29253 l -6.09099,-60.62157 c -0.003,0 -34.15058,0.52676 -59.56528,3.97009 z"
     id="path66"
     style="stroke-width:2.77241" /><polygon
     fill="#ffffff"
     points="323.891,411.231 315.297,412.187 312.242,382.49 320.74,381.344 "
     id="polygon68"
     transform="matrix(2.7724122,0,0,2.7724122,-531.79254,-723.30718)" /><path
     fill="#ffffff"
     d="m 358.75339,334.20173 c 0,0 17.47451,-2.11812 25.67808,-1.85197 l 7.94296,81.80002 -25.41193,2.64765 z"
     id="path70"
     style="stroke-width:2.77241" /><polygon
     fill="#ffffff"
     points="336.209,409.799 333.916,410.086 330.957,380.867 333.631,380.867 "
     id="polygon72"
     transform="matrix(2.7724122,0,0,2.7724122,-531.79254,-723.30718)" /><path
     fill="#d2dde3"
     d="m 386.28622,267.2258 c 0,0 -57.71054,0.26615 -109.33562,12.97211 0,0 -19.85602,-5.2953 -34.14781,7.67681 0,0 -15.88315,3.9701 -18.26742,5.82484 l -1.32521,-11.38352 c 0,0 6.08821,-2.91104 16.94221,-5.29531 l -1.32521,-32.29583 c 0,0 -10.32447,2.64765 -15.88315,4.763 0,0 0.26337,-19.85324 19.06033,-37.59113 0,0 7.14728,-3.17719 14.29456,-5.02916 0,0 6.35437,-10.05831 9.2654,-10.85399 0,0 -3.44334,5.82483 -3.17719,9.00202 l 32.82536,-7.67681 -2.91103,-8.73587 3.17719,-0.52953 c 0,0 4.49962,3.44056 8.20634,7.67681 0,0 24.35564,-3.9701 34.6801,-3.44057 0,0 7.67404,2.11813 10.32169,3.9701 0,0 -33.35489,3.17718 -40.50217,5.82484 0,0 14.82409,15.88314 21.44184,39.70926 0,0 41.564,-5.02916 51.88569,-3.70672 0.006,-0.003 5.0347,19.32371 4.7741,29.11865 z"
     id="path74"
     style="stroke-width:2.77241" /><path
     d="m 247.03904,242.07724 c 0,0 -1.05906,23.03043 1.85197,32.56199 0,0 32.03245,-7.14728 41.29785,-8.73587 0,0 -4.76577,-25.14856 -4.76577,-31.23955 0.003,0 -23.55996,2.64766 -38.38405,7.41343 z"
     id="path76"
     style="stroke-width:2.77241" /><path
     fill="#006598"
     d="m 248.89101,244.19537 c 0,0 0,21.70799 1.58859,27.26667 0,0 29.91433,-6.88113 37.59114,-7.94019 0,0 -3.44056,-11.64967 -4.763,-26.47376 0,-0.003 -26.73992,4.763 -34.41673,7.14728 z"
     id="path78"
     style="stroke-width:2.77241" /><path
     fill="#006598"
     d="m 222.94955,252.40171 c 0,0 5.55869,-3.17719 13.76503,-5.02916 0,0 0,15.88315 1.32244,27.53283 0,0 -11.11738,3.17718 -14.55794,5.02915 0,-0.003 -1.32521,-18.79972 -0.52953,-27.53282 z"
     id="path80"
     style="stroke-width:2.77241" /><path
     d="m 297.07276,230.43034 c 0,0 7.94296,17.20836 8.73587,32.29583 0,0 15.35362,-2.3815 20.1194,-3.17718 0,0 -5.02916,-23.0332 -9.79493,-32.56199 0,0 -15.09024,1.05907 -19.06034,3.44334 z"
     id="path82"
     style="stroke-width:2.77241" /><path
     fill="#6cb7e0"
     d="m 299.9838,231.22325 5.02915,14.29456 c 0,0 7.41343,-1.85197 14.03118,-2.64766 0,0 -1.58859,-6.35436 -4.23625,-13.50164 0.003,0 -6.88112,-0.26338 -14.82408,1.85474 z"
     id="path84"
     style="stroke-width:2.77241" /><path
     fill="#6cb7e0"
     d="m 305.01295,247.1064 2.91103,12.97212 c 0,0 9.79494,-2.38151 15.35362,-2.11813 0,0 -1.32244,-8.20634 -3.43779,-12.97211 0.003,0 -6.8839,0 -14.82686,2.11812 z"
     id="path86"
     style="stroke-width:2.77241" /><path
     d="m 351.60611,259.54899 c 0,0 10.85122,1.05906 18.79418,-0.79569 7.94296,-1.85474 8.73865,-4.23624 9.79494,-7.67958 1.06183,-3.44056 -1.05629,-10.85399 -8.46972,-9.79493 0,0 -13.23827,1.32521 -17.7379,1.58859 -4.49962,0.26338 -9.48719,3.17164 -8.99925,9.52878 0.52953,6.88667 6.61775,7.15283 6.61775,7.15283 z"
     id="path88"
     style="stroke-width:2.77241" /><path
     fill="#8e99a3"
     d="m 368.54832,243.92922 c 0,0 -4.23347,7.94018 1.32244,12.17643 0,0 -8.99925,2.64765 -17.9985,1.32521 0,0 -6.88112,-1.58859 -3.97009,-9.2654 0,0 0.79014,-2.91103 7.67404,-3.44056 6.88112,-0.52953 7.41065,0.26338 12.97211,-0.79568 z"
     id="path90"
     style="stroke-width:2.77241" /><path
     fill="#d43d2b"
     d="m 369.07785,249.09145 c 0,-3.29086 2.01555,-5.95514 4.49963,-5.95514 2.48408,0 4.49962,2.66706 4.49962,5.95514 0,3.28808 -2.01554,5.95514 -4.49962,5.95514 -2.48408,0 -4.49963,-2.66429 -4.49963,-5.95514 z"
     id="path92"
     style="stroke-width:2.77241" /><path
     fill="#8e99a3"
     d="m 381.51767,226.72085 c 0,0 5.82761,15.61977 6.09099,20.38555 0,0 4.76577,-8.46972 7.67958,-9.53155 0,0 -7.14728,-5.55869 -6.88113,-13.2355 -0.003,0 -3.97564,3.44056 -6.88944,2.3815 z"
     id="path94"
     style="stroke-width:2.77241" /><path
     fill="#728fa2"
     d="m 391.05199,223.01691 c -0.57389,-0.60993 -1.85751,7.41343 6.3516,12.97212 0,0 1.85197,-4.23625 -6.3516,-12.97212 z"
     id="path96"
     style="stroke-width:2.77241" /><path
     fill="#5584aa"
     d="m 311.36732,202.89752 c 0,0 3.70672,-0.79569 4.76578,-0.79569 0,0 10.85122,14.82409 18.26465,35.47302 0,0 30.71278,-3.44057 46.06363,-3.17719 l 0.26615,1.85197 c 0,0 -40.76832,2.64766 -49.50142,3.97287 -0.003,0 -6.8839,-21.70799 -19.85879,-37.32498 z"
     id="path98"
     style="stroke-width:2.77241" /><path
     fill="#006598"
     d="m 317.72169,201.57507 c 0,0 12.44259,19.58987 18.00404,34.94349 0,0 40.50217,-3.70672 44.73842,-2.91103 0,0 -3.70394,-19.32372 -29.38757,-36.00255 -0.003,-0.003 -27.00052,2.64488 -33.35489,3.97009 z"
     id="path100"
     style="stroke-width:2.77241" /><path
     d="m 332.33507,206.55433 c 3.68731,-6.8645 14.49695,-8.23129 24.1394,-3.05243 9.64799,5.17609 14.48585,14.94053 10.79854,21.80502 -3.68176,6.8645 -14.4914,8.23129 -24.13939,3.05243 -9.64522,-5.17609 -14.48308,-14.93776 -10.79855,-21.80502 z"
     id="path102"
     style="stroke-width:2.77241" /><path
     fill="#e9ecee"
     d="m 355.04945,219.02464 c 0,-1.01193 1.18659,-1.83257 2.64765,-1.83257 1.45552,0 2.64211,0.82064 2.64211,1.83257 0,1.01193 -1.18659,1.83256 -2.64211,1.83256 -1.46106,0 -2.64765,-0.82063 -2.64765,-1.83256 z"
     id="path104"
     style="stroke-width:2.77241" /><path
     fill="#e9ecee"
     d="m 341.02381,205.04059 c 0.80123,-2.53398 4.85727,-3.50987 9.06856,-2.18466 4.20853,1.32798 6.97539,4.45527 6.17417,6.98648 -0.79569,2.53398 -4.85727,3.51264 -9.06579,2.18466 -4.20575,-1.32521 -6.97262,-4.45527 -6.17694,-6.98648 z"
     id="path106"
     style="stroke-width:2.77241" /><path
     fill="#006598"
     d="m 258.15919,199.45695 c 0,0 -2.64766,3.9701 -2.91104,5.82207 0,0 -6.8839,0.79568 -8.73587,2.11812 -0.003,0 9.26263,-6.88113 11.64691,-7.94019 z"
     id="path108"
     style="stroke-width:2.77241" /><path
     fill="#006598"
     d="m 268.74703,194.42502 c 0,0 -2.91381,5.82484 -3.44334,7.67681 0,0 20.64893,-6.08821 27.53283,-6.35437 l -2.91104,-6.8839 c 0,0.003 -11.64967,0.26893 -21.17845,5.56146 z"
     id="path110"
     style="stroke-width:2.77241" /><path
     fill="#006598"
     d="m 298.92473,188.07343 5.82484,5.55868 c 0,0 21.97414,-3.17718 27.53006,-2.3815 0,-0.003 -19.58987,-6.08822 -33.3549,-3.17718 z"
     id="path112"
     style="stroke-width:2.77241" /></g>
<rect
   style="fill:none;fill-opacity:1;stroke:none;stroke-width:4.60791;stroke-linecap:round;stroke-linejoin:round;stroke-opacity:1"
   id="rect3213"
   width="1200"
   height="599.99957"
   x="0"
   y="0" /><text
   xml:space="preserve"
   id="text5852"
   style="font-style:normal;font-weight:normal;font-size:43.7857px;line-height:1.25;font-family:sans-serif;white-space:pre;shape-inside:url(#rect5854);fill:#000080;fill-opacity:1;stroke:none"
   transform="matrix(1.1575088,0,0,1.2190232,352.33303,-528.18693)"
   x="73.695953"
   y="0"><tspan
     x="288.69036"
     y="490.09937"
     id="tspan13382"><tspan
       style="font-family:'Tw Cen MT Condensed';-inkscape-font-specification:'Tw Cen MT Condensed, ';text-align:center;text-anchor:middle"
       id="tspan13380">Ha ocurrido </tspan></tspan><tspan
     x="310.4977"
     y="545.19022"
     id="tspan13386"><tspan
       style="font-family:'Tw Cen MT Condensed';-inkscape-font-specification:'Tw Cen MT Condensed, ';text-align:center;text-anchor:middle"
       id="tspan13384">un error</tspan></tspan></text></svg>
